<svg xmlns="http://www.w3.org/2000/svg" viewBox="0 0 1920 988.98"><defs><style>.cls-1{fill:#000;}</style></defs><g id="Layer_2" data-name="Layer 2"><g id="Capa_1" data-name="Capa 1"><path class="cls-1" d="M855.51,444.89l283.06,340.77H1284l-245.3-291.93c133.2-23.3,200.9-127.65,200.9-237.54,0-123.21-84.35-247.53-253.08-247.53h-283v139c15.7,21.17,86.43,113.42,88.35,252.64,1.59,58.62-20.74,163.5-88.35,246.86V785.66h111V121.88h172c94.35,0,141,67.71,141,134.31,0,67.71-46.63,135.42-141,135.42h-131Z"/><path class="cls-1" d="M1222.92,9.77c71,98.79,197.58,275.28,280.83,389.61L1222.92,785.66h137.64l210.9-290.82,212,290.82H1920c-74.37-103.23-197.58-271.95-280.83-386.28L1920,9.77H1783.47l-212,290.82L1360.56,9.77Z"/><path class="cls-1" d="M678.21,398.49c0,79.92-32.19,149.85-82.14,200.91-52.17,52.17-124.32,84.37-200.91,84.37s-147.63-32.2-198.69-84.37a284.06,284.06,0,0,1,0-401.82c51.06-52.16,122.1-84.36,198.69-84.36s148.74,32.2,200.91,84.36C646,248.64,678.21,318.57,678.21,398.49ZM0,398.49c0,109.9,45.51,208.69,115.44,280.83C186.48,752.58,286.38,797,395.16,797c109.89,0,208.68-44.4,280.83-117.66q14.09-14.54,26.81-30.47c.65-248.75.65-226-.44-501.25Q689.87,132,676,117.67C603.84,45.52,505.05,0,395.16,0,286.38,0,186.48,45.52,115.44,117.67,45.51,189.81,0,288.61,0,398.49Z"/><path class="cls-1" d="M28.62,914.81h24c17.32,0,25.88-12.43,25.88-24.86,0-12.22-8.56-24.65-25.88-24.65H21.08V987.14H.7V844.51h52c31,0,46.46,22.82,46.46,45.44,0,20.18-12.43,39.32-36.88,43.61l45,53.58H80.58l-52-62.55Z"/><path class="cls-1" d="M269.9,945.17H218.76c-5.5,13-12.63,30.16-17.12,42H179.43l57.26-144.46h15.08L309,987.14H287Zm-43.4-19.36H262l-17.53-50.32Z"/><path class="cls-1" d="M450.47,844.72c46.66,0,70.09,35.66,70.09,71.31s-23.43,71.11-70.09,71.11H399.33V844.72Zm0,121.84c33,0,49.72-25.26,49.72-50.53s-16.71-50.73-49.72-50.73H419.91V966.56Z"/><path class="cls-1" d="M675.87,865.09H649.38V966.56h26.49v20.58H602.31V966.56H628.8V865.09H602.31V844.72h73.56Z"/><path class="cls-1" d="M780.83,864.28a72.08,72.08,0,0,1,102.9,0,73.3,73.3,0,0,1,0,103.1,72.08,72.08,0,0,1-102.9,0,73.3,73.3,0,0,1,0-103.1ZM869.06,879a52.45,52.45,0,0,0-36.88-15.49A51.17,51.17,0,0,0,795.7,879a52.17,52.17,0,0,0,0,73.76,51.16,51.16,0,0,0,36.48,15.48A52.44,52.44,0,0,0,869.06,879Z"/><path class="cls-1" d="M1021.31,966.56h67v20.58h-87.62V844.72h20.58Z"/><path class="cls-1" d="M1183.33,864.28a72.06,72.06,0,0,1,102.89,0,73.3,73.3,0,0,1,0,103.1,72.06,72.06,0,0,1-102.89,0,73.3,73.3,0,0,1,0-103.1ZM1271.56,879a52.47,52.47,0,0,0-36.89-15.49A51.13,51.13,0,0,0,1198.2,879a52.15,52.15,0,0,0,0,73.76,51.12,51.12,0,0,0,36.47,15.48A52.45,52.45,0,0,0,1271.56,879Z"/><path class="cls-1" d="M1517.13,895.65c-5.71-23-27.71-31.37-45.85-31.37-27.91,0-49.51,21.8-49.51,51.75,0,30.16,21.6,52.37,49.51,52.37,17.52,0,36.27-8.15,44.83-28.94h-52.77V918.88h76.81c-1,12-2,20-3.87,24.66v-.21c-9.78,27.31-39.12,44.83-65,44.83-39.93,0-70.09-30.15-70.09-72.13,0-42.17,30.76-72.33,70.09-72.33,27.31,0,60.31,14.06,67.85,51.95Z"/><path class="cls-1" d="M1702.18,865.09h-26.49V966.56h26.49v20.58h-73.55V966.56h26.49V865.09h-26.49V844.72h73.55Zm-47.47-26.89,14.67-21.81h27.71l-23,21.81Z"/><path class="cls-1" d="M1879.69,945.17h-51.15c-5.5,13-12.63,30.16-17.11,42h-22.21l57.25-144.46h15.08l57.26,144.46h-22Zm-43.4-19.36h35.45l-17.52-50.32Z"/></g></g><script xmlns=""/></svg>
