<svg xmlns="http://www.w3.org/2000/svg" viewBox="0 0 1213.99 518.44"><g><path fill="#4db8a7" d="M304,303.52l60.42,34.89a10.38,10.38,0,0,1,0,18l-55.24,31.88a10.35,10.35,0,0,1-10.38,0l-65.59-37.88a10.47,10.47,0,0,1-4-4.1"/><path fill="#45c0f0" d="M229.22,346.29A10.37,10.37,0,0,1,228,341.4V265.64a10.37,10.37,0,0,1,5.2-9L304,215.79l74.64-43.53A12.18,12.18,0,0,1,380,177.9v75.75a10.38,10.38,0,0,1-5.19,9L304,303.52"/><path fill="#4db8a7" d="M378.6,172.26a10.49,10.49,0,0,0-3.8-3.8L233.18,86.7a10.4,10.4,0,0,0-10.38,0L76,171.46l76,43.85,76-43.81,76.36,44.06Z"/><path fill="#45c0f0" d="M76,171.46h0l76,43.85V372.85a10.38,10.38,0,0,1-15.57,9l-55.22-31.9A10.37,10.37,0,0,1,76,341V171.46"/><path fill="#45c0f0" d="M215,3.48,13,120.08A26,26,0,0,0,0,142.56V375.85a26,26,0,0,0,13,22.47L215,515a26,26,0,0,0,26,0L443,398.32a25.93,25.93,0,0,0,13-22.47L456,143.47A26,26,0,0,0,443.09,121L241,3.52A25.94,25.94,0,0,0,215,3.48ZM405,376.35,241,471.08a25.94,25.94,0,0,1-26,0L51.27,376.35a26,26,0,0,1-13-22.37l-.73-189.65a26,26,0,0,1,13-22.6L215.07,47.24a26,26,0,0,1,25.86,0l164.46,94.49a26,26,0,0,1,13,22.56L418,353.93A26,26,0,0,1,405,376.35Z"/></g></svg>
